<?xml version="1.0" encoding="utf-8"?>
<!-- Generator: Adobe Illustrator 28.0.0, SVG Export Plug-In . SVG Version: 6.00 Build 0)  -->
<svg version="1.1" id="Layer_1" xmlns="http://www.w3.org/2000/svg" xmlns:xlink="http://www.w3.org/1999/xlink" x="0px" y="0px"
	 viewBox="0 0 32 32" style="enable-background:new 0 0 32 32;" xml:space="preserve">
<style type="text/css">
	.st0{fill-rule:evenodd;clip-rule:evenodd;fill:#636466;}
</style>
<g transform="matrix(1,0,0,1,-48,-192)">
	<path class="st0" d="M73.7,215.1c0-0.4-0.1-0.8-0.3-1.1c0,0,0,0,0,0c-4.1-7-14.6-7-18.7,0c0,0,0,0,0,0c-0.2,0.3-0.3,0.7-0.3,1.1
		c0,0.3,0,0.7,0,1.1c0,0.6,0.2,1.2,0.7,1.6c0.4,0.4,1,0.7,1.6,0.7c3.4,0,11.5,0,14.9,0c0.6,0,1.2-0.2,1.6-0.7c0.4-0.4,0.7-1,0.7-1.6
		V215.1z M72.2,215.1v1.1c0,0.2-0.1,0.4-0.2,0.5c-0.1,0.1-0.3,0.2-0.5,0.2H56.6c-0.2,0-0.4-0.1-0.5-0.2c-0.1-0.1-0.2-0.3-0.2-0.5
		c0-0.4,0-0.8,0-1.1c0,0,0,0,0,0c0-0.1,0-0.3,0.1-0.4c3.5-6,12.6-6,16.2,0C72.2,214.8,72.2,214.9,72.2,215.1z M64,197.6
		c-2.9,0-5.2,2.3-5.2,5.2c0,2.9,2.3,5.2,5.2,5.2c2.9,0,5.2-2.3,5.2-5.2C69.2,199.9,66.9,197.6,64,197.6z M64,199.1
		c2.1,0,3.7,1.7,3.7,3.7c0,2.1-1.7,3.7-3.7,3.7c-2.1,0-3.7-1.7-3.7-3.7C60.3,200.7,61.9,199.1,64,199.1z"/>
</g>
</svg>
